<mxfile host="app.diagrams.net" modified="2023-10-07T15:08:16.426Z" agent="Mozilla/5.0 (X11; Linux x86_64) AppleWebKit/537.36 (KHTML, like Gecko) Chrome/117.0.0.0 Safari/537.36" etag="7zjySInAb7O9nIP4r4Yg" version="22.0.3" type="device">
  <diagram name="Сторінка-1" id="oYpZUwzZ75HXVXVaJ-Pn">
    <mxGraphModel dx="1303" dy="942" grid="1" gridSize="10" guides="1" tooltips="1" connect="1" arrows="1" fold="1" page="1" pageScale="1" pageWidth="827" pageHeight="1169" math="0" shadow="0">
      <root>
        <mxCell id="0" />
        <mxCell id="1" parent="0" />
        <mxCell id="pcpQEgToELJWx2NwXSkf-3" value="" style="rounded=0;whiteSpace=wrap;html=1;" vertex="1" parent="1">
          <mxGeometry x="320" y="40" width="480" height="230" as="geometry" />
        </mxCell>
        <mxCell id="pcpQEgToELJWx2NwXSkf-1" value="DB MySQL&lt;br&gt;127.0.0.1:3306" style="shape=cylinder3;whiteSpace=wrap;html=1;boundedLbl=1;backgroundOutline=1;size=15;fillColor=#d5e8d4;strokeColor=#82b366;" vertex="1" parent="1">
          <mxGeometry x="630" y="75" width="140" height="80" as="geometry" />
        </mxCell>
        <mxCell id="pcpQEgToELJWx2NwXSkf-2" value="192.168.0.8&lt;br&gt;&lt;br&gt;127.0.0.1&lt;br&gt;localhost&lt;br&gt;" style="text;html=1;strokeColor=none;fillColor=none;align=center;verticalAlign=middle;whiteSpace=wrap;rounded=0;" vertex="1" parent="1">
          <mxGeometry width="240" height="120" as="geometry" />
        </mxCell>
        <mxCell id="pcpQEgToELJWx2NwXSkf-4" value="xampp 8" style="text;html=1;strokeColor=none;fillColor=none;align=center;verticalAlign=middle;whiteSpace=wrap;rounded=0;" vertex="1" parent="1">
          <mxGeometry x="320" y="45" width="60" height="30" as="geometry" />
        </mxCell>
        <mxCell id="pcpQEgToELJWx2NwXSkf-5" value="nginx&lt;br&gt;127.0.0.1:80" style="shape=parallelogram;perimeter=parallelogramPerimeter;whiteSpace=wrap;html=1;fixedSize=1;" vertex="1" parent="1">
          <mxGeometry x="340" y="75" width="160" height="85" as="geometry" />
        </mxCell>
        <mxCell id="pcpQEgToELJWx2NwXSkf-6" value="php 8" style="shape=hexagon;perimeter=hexagonPerimeter2;whiteSpace=wrap;html=1;fixedSize=1;" vertex="1" parent="1">
          <mxGeometry x="354" y="160" width="120" height="80" as="geometry" />
        </mxCell>
        <mxCell id="pcpQEgToELJWx2NwXSkf-8" style="edgeStyle=orthogonalEdgeStyle;rounded=0;orthogonalLoop=1;jettySize=auto;html=1;" edge="1" parent="1" source="pcpQEgToELJWx2NwXSkf-7" target="pcpQEgToELJWx2NwXSkf-1">
          <mxGeometry relative="1" as="geometry" />
        </mxCell>
        <mxCell id="pcpQEgToELJWx2NwXSkf-7" value="phpMyAdmin" style="shape=process;whiteSpace=wrap;html=1;backgroundOutline=1;" vertex="1" parent="1">
          <mxGeometry x="500" y="170" width="120" height="60" as="geometry" />
        </mxCell>
        <mxCell id="pcpQEgToELJWx2NwXSkf-9" value="PS or&lt;br&gt;terminal&lt;br&gt;&lt;br&gt;php -v&lt;br&gt;F:\xampp8\php\php.exe -v&lt;br&gt;" style="whiteSpace=wrap;html=1;aspect=fixed;" vertex="1" parent="1">
          <mxGeometry x="30" y="180" width="160" height="160" as="geometry" />
        </mxCell>
        <mxCell id="pcpQEgToELJWx2NwXSkf-10" value="" style="rounded=0;whiteSpace=wrap;html=1;" vertex="1" parent="1">
          <mxGeometry x="320" y="280" width="480" height="230" as="geometry" />
        </mxCell>
        <mxCell id="pcpQEgToELJWx2NwXSkf-11" value="DB MariaDB&lt;br&gt;127.0.0.1:3306" style="shape=cylinder3;whiteSpace=wrap;html=1;boundedLbl=1;backgroundOutline=1;size=15;fillColor=#d5e8d4;strokeColor=#82b366;" vertex="1" parent="1">
          <mxGeometry x="630" y="315" width="140" height="80" as="geometry" />
        </mxCell>
        <mxCell id="pcpQEgToELJWx2NwXSkf-12" value="xampp 7" style="text;html=1;strokeColor=none;fillColor=none;align=center;verticalAlign=middle;whiteSpace=wrap;rounded=0;" vertex="1" parent="1">
          <mxGeometry x="320" y="285" width="60" height="30" as="geometry" />
        </mxCell>
        <mxCell id="pcpQEgToELJWx2NwXSkf-13" value="nginx&lt;br&gt;127.0.0.1:80" style="shape=parallelogram;perimeter=parallelogramPerimeter;whiteSpace=wrap;html=1;fixedSize=1;" vertex="1" parent="1">
          <mxGeometry x="340" y="315" width="160" height="85" as="geometry" />
        </mxCell>
        <mxCell id="pcpQEgToELJWx2NwXSkf-14" value="php 7" style="shape=hexagon;perimeter=hexagonPerimeter2;whiteSpace=wrap;html=1;fixedSize=1;" vertex="1" parent="1">
          <mxGeometry x="354" y="400" width="120" height="80" as="geometry" />
        </mxCell>
        <mxCell id="pcpQEgToELJWx2NwXSkf-15" style="edgeStyle=orthogonalEdgeStyle;rounded=0;orthogonalLoop=1;jettySize=auto;html=1;" edge="1" source="pcpQEgToELJWx2NwXSkf-16" target="pcpQEgToELJWx2NwXSkf-11" parent="1">
          <mxGeometry relative="1" as="geometry" />
        </mxCell>
        <mxCell id="pcpQEgToELJWx2NwXSkf-16" value="phpMyAdmin" style="shape=process;whiteSpace=wrap;html=1;backgroundOutline=1;" vertex="1" parent="1">
          <mxGeometry x="500" y="410" width="120" height="60" as="geometry" />
        </mxCell>
        <mxCell id="pcpQEgToELJWx2NwXSkf-17" value="" style="rounded=0;whiteSpace=wrap;html=1;" vertex="1" parent="1">
          <mxGeometry x="320" y="560" width="480" height="250" as="geometry" />
        </mxCell>
        <mxCell id="pcpQEgToELJWx2NwXSkf-18" value="DB MySQL&lt;br&gt;127.0.0.1:3306" style="shape=cylinder3;whiteSpace=wrap;html=1;boundedLbl=1;backgroundOutline=1;size=15;fillColor=#d5e8d4;strokeColor=#82b366;" vertex="1" parent="1">
          <mxGeometry x="650" y="730" width="140" height="70" as="geometry" />
        </mxCell>
        <mxCell id="pcpQEgToELJWx2NwXSkf-19" value="phpMyAdmin" style="shape=process;whiteSpace=wrap;html=1;backgroundOutline=1;" vertex="1" parent="1">
          <mxGeometry x="520" y="735" width="120" height="60" as="geometry" />
        </mxCell>
        <mxCell id="pcpQEgToELJWx2NwXSkf-20" value="php 8" style="shape=hexagon;perimeter=hexagonPerimeter2;whiteSpace=wrap;html=1;fixedSize=1;" vertex="1" parent="1">
          <mxGeometry x="354" y="705" width="120" height="80" as="geometry" />
        </mxCell>
        <mxCell id="pcpQEgToELJWx2NwXSkf-21" value="nginx&lt;br&gt;127.0.0.1:80" style="shape=parallelogram;perimeter=parallelogramPerimeter;whiteSpace=wrap;html=1;fixedSize=1;" vertex="1" parent="1">
          <mxGeometry x="340" y="620" width="160" height="85" as="geometry" />
        </mxCell>
        <mxCell id="pcpQEgToELJWx2NwXSkf-22" value="Docker Container" style="text;html=1;strokeColor=none;fillColor=none;align=center;verticalAlign=middle;whiteSpace=wrap;rounded=0;" vertex="1" parent="1">
          <mxGeometry x="320" y="560" width="210" height="30" as="geometry" />
        </mxCell>
      </root>
    </mxGraphModel>
  </diagram>
</mxfile>
